<svg id="b759170a-51c3-4e2f-999d-77dec9fd6d11" xmlns="http://www.w3.org/2000/svg" xmlns:xlink="http://www.w3.org/1999/xlink" version="1.1" width="1000" height="1000" viewBox="0 0 1000 1000" xml:space="preserve">
<desc>Created with Fabric.js 3.5.0</desc>
<defs>
</defs>
<rect x="0" y="0" width="100%" height="100%" fill="#ffffff"/>
<g transform="matrix(2.5256 0 0 2.6852 49.3782 767.4688)" id="Vector_38">
<path style="stroke: none; stroke-width: 0; stroke-dasharray: none; stroke-linecap: butt; stroke-dashoffset: 0; stroke-linejoin: miter; stroke-miterlimit: 4; is-custom-font: none; font-file-url: none; fill: rgb(239,153,15); fill-rule: nonzero; opacity: 1;" transform=" translate(-20.1438, -227.9975)" d="M 14.9033 232.526 C 14.9033 232.359 14.9033 223.469 14.9033 223.469 L 25.3842 227.994 L 14.9033 232.526 Z" stroke-linecap="round"/>
</g>
<g transform="matrix(2.5256 0 0 2.6852 41.6422 783.9898)" id="Vector_40">
<path style="stroke: none; stroke-width: 0; stroke-dasharray: none; stroke-linecap: butt; stroke-dashoffset: 0; stroke-linejoin: miter; stroke-miterlimit: 4; is-custom-font: none; font-file-url: none; fill: rgb(221,137,16); fill-rule: nonzero; opacity: 1;" transform=" translate(-17.0806, -234.15)" d="M 17.6618 228.322 V 239.978 C 17.235 239.431 16.8466 238.855 16.4995 238.254 V 228.322 H 17.6618 Z" stroke-linecap="round"/>
</g>
<g transform="matrix(2.5256 0 0 2.6852 53.1911 794.4703)" id="Vector_41">
<path style="stroke: none; stroke-width: 0; stroke-dasharray: none; stroke-linecap: butt; stroke-dashoffset: 0; stroke-linejoin: miter; stroke-miterlimit: 4; is-custom-font: none; font-file-url: none; fill: rgb(221,137,16); fill-rule: nonzero; opacity: 1;" transform=" translate(-21.6533, -238.053)" d="M 22.2378 231.924 V 244.182 C 21.8304 243.908 21.4429 243.621 21.0688 243.327 V 231.924 H 22.2378 Z" stroke-linecap="round"/>
</g>
<g transform="matrix(2.5256 0 0 2.6852 64.7395 802.2065)" id="Vector_42">
<path style="stroke: none; stroke-width: 0; stroke-dasharray: none; stroke-linecap: butt; stroke-dashoffset: 0; stroke-linejoin: miter; stroke-miterlimit: 4; is-custom-font: none; font-file-url: none; fill: rgb(221,137,16); fill-rule: nonzero; opacity: 1;" transform=" translate(-26.2257, -240.934)" d="M 26.8069 235.106 V 246.762 C 26.4105 246.584 26.0231 246.397 25.6445 246.201 V 235.106 H 26.8069 Z" stroke-linecap="round"/>
</g>
<g transform="matrix(1.1525 0 0 1.1859 498.3996 498.4257)" id="324507">
<g style="">
		<g transform="matrix(0.7757 0 0 1.2019 16.3952 21.3678)" id="b759170a-51c3-4e2f-999d-77dec9fd6d11">
<path style="stroke: none; stroke-width: 0; stroke-dasharray: none; stroke-linecap: butt; stroke-dashoffset: 0; stroke-linejoin: miter; stroke-miterlimit: 4; is-custom-font: none; font-file-url: none; fill: rgb(235,93,30); fill-rule: nonzero; opacity: 0.1;" transform=" translate(-567.6907, -423.1187)" d="M 38.48 470.82 c 20.16 -32.93 65.75 -27.19 98.08 -10 s 64.59 42.85 100.17 37.92 c 30 -4.16 54.6 -30.32 67.89 -60.5 s 17.19 -64.21 20.93 -97.54 Q 332.6 277.89 339.64 215 c 1.72 -15.33 3.75 -31.51 12.37 -43.64 c 11.39 -16 32.27 -20.92 50.13 -16.11 s 33.09 17.71 46.12 32.1 C 490 233.43 513.65 295.72 550.14 347 c 7.43 10.44 15.82 20.76 26.92 25.8 c 16 7.25 34.37 2.12 50 -5.95 c 51 -26.29 85.26 -79.94 118.93 -130 c 16.38 -24.33 36.35 -50.35 63.6 -53 C 838.26 181 863.15 205.43 880 231.3 c 54.08 83.24 65.67 196.88 131 269.48 c 8.11 9 17.06 17.32 27.37 22.91 a 70.65 70.65 0 0 0 10.6 4.65 c 57 19.73 76 98.93 33.84 145.89 c -0.91 1 -1.84 2 -2.78 3 c -6.26 6.61 -13.35 12.86 -21.81 14.83 c -7.87 1.82 -16 -0.28 -23.8 -2.55 c -49.86 -14.55 -99.12 -36.79 -150.67 -35.71 c -50.16 1 -97.74 24.17 -147.34 32.51 c -33.35 5.61 -67.28 4.49 -101 3.28 q -168.46 -6.06 -336.85 -14.1 c -55.72 -2.56 -111.46 -5 -167.17 -7.85 c -42.92 -2.23 -70.26 -7.14 -75.24 -56.95 C 51.79 567.07 12.63 513.06 38.48 470.82 Z" stroke-linecap="round"/>
</g>
		<g transform="matrix(2.5256 0 0 2.6852 -126.2258 105.7512)" id="Vector">
<path style="stroke: none; stroke-width: 0; stroke-dasharray: none; stroke-linecap: butt; stroke-dashoffset: 0; stroke-linejoin: miter; stroke-miterlimit: 4; is-custom-font: none; font-file-url: none; fill: rgb(214,216,229); fill-rule: nonzero; opacity: 0.4;" transform=" translate(-121.763, -196.3835)" d="M 243.526 184.811 L 101.843 266.659 L 0 207.83 L 141.897 126.108 L 243.526 184.811 Z" stroke-linecap="round"/>
</g>
		<g transform="matrix(2.5256 0 0 2.6852 -110.771 71.8754)" id="Vector_2">
<path style="stroke: none; stroke-width: 0; stroke-dasharray: none; stroke-linecap: butt; stroke-dashoffset: 0; stroke-linejoin: miter; stroke-miterlimit: 4; is-custom-font: none; font-file-url: none; fill: rgb(65,83,140); fill-rule: nonzero; opacity: 1;" transform=" translate(-127.8821, -183.768)" d="M 249.645 172.192 L 107.962 254.047 L 6.11914 195.217 L 148.016 113.489 L 249.645 172.192 Z" stroke-linecap="round"/>
</g>
		<g transform="matrix(2.5256 0 0 2.6852 17.8421 162.8437)" id="Vector_3">
<path style="stroke: none; stroke-width: 0; stroke-dasharray: none; stroke-linecap: butt; stroke-dashoffset: 0; stroke-linejoin: miter; stroke-miterlimit: 4; is-custom-font: none; font-file-url: none; fill: rgb(38,51,81); fill-rule: nonzero; opacity: 1;" transform=" translate(-178.8035, -217.6445)" d="M 249.645 181.242 L 107.962 263.09 V 254.047 L 249.645 172.199 V 181.242 Z" stroke-linecap="round"/>
</g>
		<g transform="matrix(2.5256 0 0 2.6852 -289.6883 193.7582)" id="Vector_4">
<path style="stroke: none; stroke-width: 0; stroke-dasharray: none; stroke-linecap: butt; stroke-dashoffset: 0; stroke-linejoin: miter; stroke-miterlimit: 4; is-custom-font: none; font-file-url: none; fill: rgb(49,67,102); fill-rule: nonzero; opacity: 1;" transform=" translate(-57.0406, -229.157)" d="M 107.962 263.09 L 6.11914 204.267 V 195.224 L 107.962 254.047 V 263.09 Z" stroke-linecap="round"/>
</g>
		<g transform="matrix(2.5256 0 0 2.6852 -204.4373 102.8371)" id="Vector_5">
<path style="stroke: none; stroke-width: 0; stroke-dasharray: none; stroke-linecap: butt; stroke-dashoffset: 0; stroke-linejoin: miter; stroke-miterlimit: 4; is-custom-font: none; font-file-url: none; fill: rgb(65,83,140); fill-rule: nonzero; opacity: 1;" transform=" translate(-90.7945, -195.2975)" d="M 102.344 224.886 L 39.5791 188.627 L 79.2516 165.709 L 142.01 201.968 L 102.344 224.886 Z" stroke-linecap="round"/>
</g>
		<g transform="matrix(2.5256 0 0 2.6852 -125.1652 160.7629)" id="Vector_6">
<path style="stroke: none; stroke-width: 0; stroke-dasharray: none; stroke-linecap: butt; stroke-dashoffset: 0; stroke-linejoin: miter; stroke-miterlimit: 4; is-custom-font: none; font-file-url: none; fill: rgb(38,51,81); fill-rule: nonzero; opacity: 1;" transform=" translate(-122.1805, -216.869)" d="M 142.017 208.832 L 102.344 231.75 V 224.906 L 142.017 201.988 V 208.832 Z" stroke-linecap="round"/>
</g>
		<g transform="matrix(2.5256 0 0 2.6852 -254.5275 142.86)" id="Vector_7">
<path style="stroke: none; stroke-width: 0; stroke-dasharray: none; stroke-linecap: butt; stroke-dashoffset: 0; stroke-linejoin: miter; stroke-miterlimit: 4; is-custom-font: none; font-file-url: none; fill: rgb(49,67,102); fill-rule: nonzero; opacity: 1;" transform=" translate(-70.9615, -210.202)" d="M 102.344 231.75 L 39.5791 195.491 V 188.654 L 102.344 224.906 V 231.75 Z" stroke-linecap="round"/>
</g>
		<g transform="matrix(2.5256 0 0 2.6852 -204.4361 94.8598)" id="Vector_8">
<path style="stroke: none; stroke-width: 0; stroke-dasharray: none; stroke-linecap: butt; stroke-dashoffset: 0; stroke-linejoin: miter; stroke-miterlimit: 4; is-custom-font: none; font-file-url: none; fill: rgb(204,214,228); fill-rule: nonzero; opacity: 1;" transform=" translate(-90.7946, -192.3265)" d="M 98.7372 209.754 L 60.6211 187.738 L 82.8521 174.899 L 120.968 196.915 L 98.7372 209.754 Z" stroke-linecap="round"/>
</g>
		<g transform="matrix(2.5256 0 0 2.6852 -232.5092 115.6709)" id="Vector_9">
<path style="stroke: none; stroke-width: 0; stroke-dasharray: none; stroke-linecap: butt; stroke-dashoffset: 0; stroke-linejoin: miter; stroke-miterlimit: 4; is-custom-font: none; font-file-url: none; fill: rgb(127,174,221); fill-rule: nonzero; opacity: 1;" transform=" translate(-79.6791, -200.0765)" d="M 98.7372 212.461 L 60.6211 190.445 V 187.692 L 98.7372 209.708 V 212.461 Z" stroke-linecap="round"/>
</g>
		<g transform="matrix(2.5256 0 0 2.6852 -156.3013 127.9911)" id="Vector_10">
<path style="stroke: none; stroke-width: 0; stroke-dasharray: none; stroke-linecap: butt; stroke-dashoffset: 0; stroke-linejoin: miter; stroke-miterlimit: 4; is-custom-font: none; font-file-url: none; fill: rgb(111,152,201); fill-rule: nonzero; opacity: 1;" transform=" translate(-109.8524, -204.6645)" d="M 120.968 199.622 L 98.7368 212.461 V 209.708 L 120.968 196.868 V 199.622 Z" stroke-linecap="round"/>
</g>
		<g transform="matrix(2.5256 0 0 2.6852 -204.0976 94.8524)" id="Vector_11">
<path style="stroke: none; stroke-width: 0; stroke-dasharray: none; stroke-linecap: butt; stroke-dashoffset: 0; stroke-linejoin: miter; stroke-miterlimit: 4; is-custom-font: none; font-file-url: none; fill: rgb(181,9,9); fill-rule: nonzero; opacity: 0.83;" transform=" translate(-90.9281, -192.3235)" d="M 90.9281 197.804 C 96.1632 197.804 100.407 195.35 100.407 192.323 C 100.407 189.296 96.1632 186.843 90.9281 186.843 C 85.6931 186.843 81.4492 189.296 81.4492 192.323 C 81.4492 195.35 85.6931 197.804 90.9281 197.804 Z" stroke-linecap="round"/>
</g>
		<g transform="matrix(2.5256 0 0 2.6852 -48.8992 -117.181)" id="Vector_12">
<path style="stroke: none; stroke-width: 0; stroke-dasharray: none; stroke-linecap: butt; stroke-dashoffset: 0; stroke-linejoin: miter; stroke-miterlimit: 4; is-custom-font: none; font-file-url: none; fill: rgb(49,67,102); fill-rule: nonzero; opacity: 1;" transform=" translate(-152.377, -113.3622)" d="M 133.406 136.1 C 133.406 136.1 145.43 114.278 135.838 88.9132 C 126.245 63.5486 146.613 66.0416 146.613 66.0416 L 168.282 86.2531 L 171.622 143.847 L 155.343 160.75 L 133.132 152.435 L 133.406 136.1 Z" stroke-linecap="round"/>
</g>
		<g transform="matrix(2.5256 0 0 2.6852 -63.702 -295.8285)" id="Vector_13">
<path style="stroke: none; stroke-width: 0; stroke-dasharray: none; stroke-linecap: butt; stroke-dashoffset: 0; stroke-linejoin: miter; stroke-miterlimit: 4; is-custom-font: none; font-file-url: none; fill: rgb(65,83,140); fill-rule: nonzero; opacity: 1;" transform=" translate(-146.5161, -46.8324)" d="M 126.252 34.0267 C 126.252 34.0267 154.021 41.7597 164.996 54.0042 C 175.971 66.2488 132.725 54.7194 132.725 54.7194 L 126.252 34.0267 Z" stroke-linecap="round"/>
</g>
		<g transform="matrix(2.5256 0 0 2.6852 -145.328 -281.2726)" id="Vector_14">
<path style="stroke: none; stroke-width: 0; stroke-dasharray: none; stroke-linecap: butt; stroke-dashoffset: 0; stroke-linejoin: miter; stroke-miterlimit: 4; is-custom-font: none; font-file-url: none; fill: rgb(65,83,140); fill-rule: nonzero; opacity: 1;" transform=" translate(-114.1977, -52.2532)" d="M 146.512 44.8676 L 102.177 70.4796 L 81.8833 59.6386 L 126.218 34.0267 L 146.512 44.8676 Z" stroke-linecap="round"/>
</g>
		<g transform="matrix(2.5256 0 0 2.6852 -63.2796 -131.9612)" id="Vector_15">
<path style="stroke: none; stroke-width: 0; stroke-dasharray: none; stroke-linecap: butt; stroke-dashoffset: 0; stroke-linejoin: miter; stroke-miterlimit: 4; is-custom-font: none; font-file-url: none; fill: rgb(38,51,81); fill-rule: nonzero; opacity: 1;" transform=" translate(-146.6836, -107.8583)" d="M 167.855 172.199 C 167.855 172.199 185.169 129.035 179.324 86.4603 C 174.755 53.5698 154.121 46.2579 154.121 46.2579 C 154.121 46.2579 148.276 43.698 143.713 43.5175 L 112.838 60.982 V 103.758 L 143.713 85.9323 C 143.713 85.9323 161.789 94.3337 154.121 125.767 C 151.138 140.257 147.41 154.584 142.952 168.69 L 167.855 172.199 Z" stroke-linecap="round"/>
</g>
		<g transform="matrix(2.5256 0 0 2.6852 -75.0752 8.4493)" id="Vector_16">
<path style="stroke: none; stroke-width: 0; stroke-dasharray: none; stroke-linecap: butt; stroke-dashoffset: 0; stroke-linejoin: miter; stroke-miterlimit: 4; is-custom-font: none; font-file-url: none; fill: rgb(49,67,102); fill-rule: nonzero; opacity: 1;" transform=" translate(-142.013, -160.147)" d="M 146.8 162.14 L 160.4 151.813 L 139.973 139.896 L 127.762 132.845 C 125.023 131.261 120.333 136.187 120.333 140.692 V 173.93 L 144.054 187.752 L 163.693 167.032 L 146.8 162.14 Z" stroke-linecap="round"/>
</g>
		<g transform="matrix(2.5256 0 0 2.6852 -20.3176 27.0802)" id="Vector_17">
<path style="stroke: none; stroke-width: 0; stroke-dasharray: none; stroke-linecap: butt; stroke-dashoffset: 0; stroke-linejoin: miter; stroke-miterlimit: 4; is-custom-font: none; font-file-url: none; fill: rgb(38,51,81); fill-rule: nonzero; opacity: 1;" transform=" translate(-163.6935, -167.0851)" d="M 183.333 165.087 L 144.054 187.812 V 154.507 C 144.054 150.029 148.73 145.076 151.482 146.66 L 163.693 153.725 L 183.333 165.087 Z" stroke-linecap="round"/>
</g>
		<g transform="matrix(2.5256 0 0 2.6852 -41.4658 26.9784)" id="Vector_18">
<path style="stroke: none; stroke-width: 0; stroke-dasharray: none; stroke-linecap: butt; stroke-dashoffset: 0; stroke-linejoin: miter; stroke-miterlimit: 4; is-custom-font: none; font-file-url: none; fill: rgb(172,186,209); fill-rule: nonzero; opacity: 1;" transform=" translate(-155.3199, -167.047)" d="M 160.41 169.988 C 163.224 165.113 163.225 159.844 160.413 158.22 C 157.602 156.596 153.042 159.231 150.229 164.106 C 147.416 168.981 147.415 174.25 150.226 175.874 C 153.038 177.498 157.597 174.863 160.41 169.988 Z" stroke-linecap="round"/>
</g>
		<g transform="matrix(2.5256 0 0 2.6852 -41.4665 26.9779)" id="Vector_19">
<path style="stroke: none; stroke-width: 0; stroke-dasharray: none; stroke-linecap: butt; stroke-dashoffset: 0; stroke-linejoin: miter; stroke-miterlimit: 4; is-custom-font: none; font-file-url: none; fill: rgb(153,169,191); fill-rule: nonzero; opacity: 1;" transform=" translate(-155.3195, -167.0467)" d="M 157.865 168.517 C 159.271 166.081 159.27 163.448 157.865 162.636 C 156.459 161.824 154.18 163.14 152.774 165.576 C 151.368 168.012 151.369 170.645 152.774 171.457 C 154.18 172.27 156.459 170.953 157.865 168.517 Z" stroke-linecap="round"/>
</g>
		<g transform="matrix(2.5256 0 0 2.6852 -120.1041 -214.4769)" id="Vector_20">
<path style="stroke: none; stroke-width: 0; stroke-dasharray: none; stroke-linecap: butt; stroke-dashoffset: 0; stroke-linejoin: miter; stroke-miterlimit: 4; is-custom-font: none; font-file-url: none; fill: rgb(172,186,209); fill-rule: nonzero; opacity: 1;" transform=" translate(-124.1841, -77.128)" d="M 129.275 80.0688 C 132.088 75.1937 132.089 69.9251 129.278 68.3009 C 126.466 66.6767 121.907 69.3121 119.094 74.1872 C 116.28 79.0622 116.279 84.3309 119.091 85.9551 C 121.902 87.5792 126.462 84.9439 129.275 80.0688 Z" stroke-linecap="round"/>
</g>
		<g transform="matrix(2.5256 0 0 2.6852 -120.104 -214.4767)" id="Vector_21">
<path style="stroke: none; stroke-width: 0; stroke-dasharray: none; stroke-linecap: butt; stroke-dashoffset: 0; stroke-linejoin: miter; stroke-miterlimit: 4; is-custom-font: none; font-file-url: none; fill: rgb(153,169,191); fill-rule: nonzero; opacity: 1;" transform=" translate(-124.1841, -77.128)" d="M 126.73 78.5984 C 128.135 76.1625 128.135 73.5294 126.729 72.7173 C 125.324 71.9053 123.044 73.2216 121.639 75.6576 C 120.233 78.0935 120.233 80.7266 121.639 81.5386 C 123.045 82.3507 125.324 81.0343 126.73 78.5984 Z" stroke-linecap="round"/>
</g>
		<g transform="matrix(2.5256 0 0 2.6852 -204.1111 -39.209)" id="Vector_22">
<path style="stroke: none; stroke-width: 0; stroke-dasharray: none; stroke-linecap: butt; stroke-dashoffset: 0; stroke-linejoin: miter; stroke-miterlimit: 4; is-custom-font: none; font-file-url: none; fill: rgb(49,67,102); fill-rule: nonzero; opacity: 1;" transform=" translate(-90.9227, -142.3985)" d="M 97.4813 148.572 V 132.337 H 84.3618 V 148.786 C 84.4086 149.715 85.0298 150.637 86.2723 151.352 C 87.7116 152.081 89.302 152.46 90.9149 152.46 C 92.5278 152.46 94.1181 152.081 95.5575 151.352 C 96.8601 150.564 97.5281 149.568 97.4813 148.572 Z" stroke-linecap="round"/>
</g>
		<g transform="matrix(2.5256 0 0 2.6852 -204.1144 -66.6749)" id="Vector_23">
<path style="stroke: none; stroke-width: 0; stroke-dasharray: none; stroke-linecap: butt; stroke-dashoffset: 0; stroke-linejoin: miter; stroke-miterlimit: 4; is-custom-font: none; font-file-url: none; fill: rgb(188,192,206); fill-rule: nonzero; opacity: 1;" transform=" translate(-90.9214, -132.17)" d="M 90.9214 135.966 C 94.548 135.966 97.4878 134.267 97.4878 132.17 C 97.4878 130.073 94.548 128.374 90.9214 128.374 C 87.2949 128.374 84.355 130.073 84.355 132.17 C 84.355 134.267 87.2949 135.966 90.9214 135.966 Z" stroke-linecap="round"/>
</g>
		<g transform="matrix(2.5256 0 0 2.6852 -204.0704 -104.0124)" id="Vector_24">
<path style="stroke: none; stroke-width: 0; stroke-dasharray: none; stroke-linecap: butt; stroke-dashoffset: 0; stroke-linejoin: miter; stroke-miterlimit: 4; is-custom-font: none; font-file-url: none; fill: rgb(38,51,81); fill-rule: nonzero; opacity: 1;" transform=" translate(-90.9389, -118.2657)" d="M 104.048 134.596 V 102.08 C 104.181 100.075 102.912 97.983 100.227 96.4324 C 95.0967 93.4648 86.7801 93.4648 81.6565 96.4324 C 78.9845 97.983 77.702 100.042 77.8289 102.08 V 134.623 C 77.8221 134.701 77.8221 134.779 77.8289 134.857 V 134.971 C 77.9291 136.835 79.1649 138.68 81.6565 140.104 C 86.7868 143.065 95.0967 143.065 100.227 140.104 C 102.872 138.586 104.115 136.588 104.048 134.596 Z" stroke-linecap="round"/>
</g>
		<g transform="matrix(2.5256 0 0 2.6852 -204.0892 -200.4012)" id="Vector_25">
<path style="stroke: none; stroke-width: 0; stroke-dasharray: none; stroke-linecap: butt; stroke-dashoffset: 0; stroke-linejoin: miter; stroke-miterlimit: 4; is-custom-font: none; font-file-url: none; fill: rgb(49,67,102); fill-rule: nonzero; opacity: 1;" transform=" translate(-90.9317, -82.3705)" d="M 112.839 114.325 V 38.1305 L 69.0244 37.7428 V 114.338 C 69.0244 117.58 71.162 120.821 75.4439 123.294 C 84.001 128.233 97.8753 128.233 106.439 123.294 C 110.701 120.808 112.839 117.566 112.839 114.325 Z" stroke-linecap="round"/>
</g>
		<g transform="matrix(2.5256 0 0 2.6852 -204.0983 -320.2721)" id="Vector_26">
<path style="stroke: none; stroke-width: 0; stroke-dasharray: none; stroke-linecap: butt; stroke-dashoffset: 0; stroke-linejoin: miter; stroke-miterlimit: 4; is-custom-font: none; font-file-url: none; fill: rgb(65,83,140); fill-rule: nonzero; opacity: 1;" transform=" translate(-90.9281, -37.7294)" d="M 90.9283 50.3884 C 103.033 50.3884 112.845 44.7208 112.845 37.7295 C 112.845 30.7381 103.033 25.0705 90.9283 25.0705 C 78.8238 25.0705 69.0112 30.7381 69.0112 37.7295 C 69.0112 44.7208 78.8238 50.3884 90.9283 50.3884 Z" stroke-linecap="round"/>
</g>
		<g transform="matrix(2.5256 0 0 2.6852 -204.0785 -348.6113)" id="Vector_27">
<path style="stroke: none; stroke-width: 0; stroke-dasharray: none; stroke-linecap: butt; stroke-dashoffset: 0; stroke-linejoin: miter; stroke-miterlimit: 4; is-custom-font: none; font-file-url: none; fill: rgb(38,51,81); fill-rule: nonzero; opacity: 1;" transform=" translate(-90.9357, -27.1759)" d="M 101.596 37.2416 V 10.8209 H 80.2734 V 37.5557 C 80.3469 39.0662 81.3756 40.57 83.3796 41.7263 C 87.548 44.1324 94.3014 44.1324 98.4631 41.7263 C 100.614 40.4765 101.649 38.8523 101.596 37.2416 Z" stroke-linecap="round"/>
</g>
		<g transform="matrix(2.5256 0 0 2.6852 -204.0801 -393.1382)" id="Vector_28">
<path style="stroke: none; stroke-width: 0; stroke-dasharray: none; stroke-linecap: butt; stroke-dashoffset: 0; stroke-linejoin: miter; stroke-miterlimit: 4; is-custom-font: none; font-file-url: none; fill: rgb(141,187,255); fill-rule: nonzero; opacity: 1;" transform=" translate(-90.935, -10.5936)" d="M 90.9351 16.756 C 96.8268 16.756 101.603 13.997 101.603 10.5937 C 101.603 7.19028 96.8268 4.43129 90.9351 4.43129 C 85.0433 4.43129 80.2671 7.19028 80.2671 10.5937 C 80.2671 13.997 85.0433 16.756 90.9351 16.756 Z" stroke-linecap="round"/>
</g>
		<g transform="matrix(2.5256 0 0 2.6852 -204.0895 -389.8401)" id="Vector_29">
<path style="stroke: none; stroke-width: 0; stroke-dasharray: none; stroke-linecap: butt; stroke-dashoffset: 0; stroke-linejoin: miter; stroke-miterlimit: 4; is-custom-font: none; font-file-url: none; fill: rgb(49,67,102); fill-rule: nonzero; opacity: 1;" transform=" translate(-90.9314, -11.8219)" d="M 105.39 8.35462 L 104.468 8.90268 C 103.876 8.01289 103.124 7.24023 102.251 6.62354 C 101.901 6.36448 101.535 6.12785 101.155 5.91507 C 100.54 5.55889 99.8988 5.24838 99.2379 4.98604 C 93.8828 2.96116 87.9732 2.96116 82.6181 4.98604 C 81.9612 5.25248 81.3229 5.56286 80.7076 5.91507 C 80.4137 6.08885 80.1331 6.25594 79.8726 6.4364 C 78.8287 7.1171 77.9463 8.01821 77.2875 9.07646 L 76.4658 8.34125 V 11.8168 C 76.4825 12.9503 76.8514 14.0505 77.5213 14.9648 C 78.372 16.1041 79.4589 17.0458 80.7076 17.7252 C 86.3522 20.9935 95.5105 20.9935 101.155 17.7252 C 103.981 16.0943 105.397 13.9556 105.397 11.8168 V 8.35462 H 105.39 Z M 83.7604 7.68625 C 87.7216 5.40043 94.1411 5.40043 98.0957 7.68625 C 99.1418 8.23613 100.014 9.06708 100.614 10.0857 V 10.1525 C 100.841 10.5728 100.979 11.0352 101.021 11.5111 C 101.062 11.987 101.006 12.4664 100.854 12.9196 L 92.0302 15.0183 C 92.0302 15.0183 86.3455 14.6039 85.5573 14.5036 C 84.0107 14.1006 82.4856 13.6187 80.9882 13.0599 C 80.8085 12.5773 80.7357 12.0614 80.775 11.5478 C 80.8142 11.0343 80.9644 10.5354 81.2153 10.0857 C 81.8244 9.06655 82.7059 8.23784 83.7604 7.69293 V 7.68625 Z" stroke-linecap="round"/>
</g>
		<g transform="matrix(2.5256 0 0 2.6852 -203.7515 -406.251)" id="Vector_30">
<path style="stroke: none; stroke-width: 0; stroke-dasharray: none; stroke-linecap: butt; stroke-dashoffset: 0; stroke-linejoin: miter; stroke-miterlimit: 4; is-custom-font: none; font-file-url: none; fill: rgb(38,51,81); fill-rule: nonzero; opacity: 1;" transform=" translate(-91.0652, -5.7104)" d="M 102.438 4.87242 L 102.251 6.63691 L 101.883 10.0924 L 100.648 10.1592 H 100.567 C 100.586 10.1368 100.602 10.1121 100.614 10.0857 C 100.014 9.06709 99.1419 8.23614 98.0958 7.68625 C 94.1412 5.40043 87.7217 5.40043 83.7605 7.68625 C 82.7216 8.23536 81.8547 9.06113 81.2555 10.0723 L 79.6924 9.40396 L 79.8861 6.46314 L 79.9729 5.1264 L 82.9055 3.12129 C 82.9055 3.12129 87.2341 1.30332 87.4679 1.26322 C 87.7017 1.22312 96.2187 1.93159 96.2187 1.93159 L 102.438 4.87242 Z" stroke-linecap="round"/>
</g>
		<g transform="matrix(2.5256 0 0 2.6852 -204.0983 -399.153)" id="Vector_31">
<path style="stroke: none; stroke-width: 0; stroke-dasharray: none; stroke-linecap: butt; stroke-dashoffset: 0; stroke-linejoin: miter; stroke-miterlimit: 4; is-custom-font: none; font-file-url: none; fill: rgb(65,83,140); fill-rule: nonzero; opacity: 1;" transform=" translate(-90.9279, -8.3538)" d="M 101.155 2.44623 C 95.5105 -0.815411 86.3522 -0.815411 80.7076 2.44623 C 77.8753 4.07705 76.4658 6.21584 76.4658 8.35462 C 76.4658 10.4934 77.8753 12.6255 80.7076 14.2563 C 86.3522 17.5247 95.5105 17.5247 101.155 14.2563 C 103.981 12.6255 105.39 10.5068 105.39 8.36799 C 105.39 6.21584 103.981 4.07705 101.155 2.44623 Z M 81.2487 10.0924 C 80.3469 8.40141 80.8078 6.52329 82.6248 5.01946 C 82.9804 4.72385 83.3628 4.46206 83.7671 4.23746 C 87.7283 1.94496 94.1478 1.94496 98.1023 4.23746 C 98.5055 4.4637 98.8878 4.72539 99.2446 5.01946 C 101.075 6.52329 101.529 8.41477 100.621 10.1124 C 100.608 10.1388 100.593 10.1635 100.574 10.186 C 99.9727 11.1684 99.1192 11.9716 98.1023 12.5119 C 94.1478 14.8044 87.7283 14.8044 83.7671 12.5119 C 82.7176 11.9574 81.845 11.1191 81.2487 10.0924 Z" stroke-linecap="round"/>
</g>
		<g transform="matrix(2.5256 0 0 2.6852 -211.9587 -396.6018)" id="Vector_32">
<path style="stroke: none; stroke-width: 0; stroke-dasharray: none; stroke-linecap: butt; stroke-dashoffset: 0; stroke-linejoin: miter; stroke-miterlimit: 4; is-custom-font: none; font-file-url: none; fill: rgb(255,255,255); fill-rule: nonzero; opacity: 0.2;" transform=" translate(-87.8154, -9.3037)" d="M 87.8155 11.262 C 89.6859 11.262 91.2022 10.3853 91.2022 9.30371 C 91.2022 8.22215 89.6859 7.34538 87.8155 7.34538 C 85.945 7.34538 84.4287 8.22215 84.4287 9.30371 C 84.4287 10.3853 85.945 11.262 87.8155 11.262 Z" stroke-linecap="round"/>
</g>
		<g transform="matrix(2.5256 0 0 2.6852 -193.1647 -392.5278)" id="Vector_33">
<path style="stroke: none; stroke-width: 0; stroke-dasharray: none; stroke-linecap: butt; stroke-dashoffset: 0; stroke-linejoin: miter; stroke-miterlimit: 4; is-custom-font: none; font-file-url: none; fill: rgb(255,255,255); fill-rule: nonzero; opacity: 0.2;" transform=" translate(-95.2566, -10.8209)" d="M 95.2566 11.9972 C 96.3819 11.9972 97.294 11.4706 97.294 10.8209 C 97.294 10.1712 96.3819 9.64458 95.2566 9.64458 C 94.1314 9.64458 93.2192 10.1712 93.2192 10.8209 C 93.2192 11.4706 94.1314 11.9972 95.2566 11.9972 Z" stroke-linecap="round"/>
</g>
		<g transform="matrix(2.5256 0 0 2.6852 -326.0116 376.1415)" id="Vector_34">
<path style="stroke: none; stroke-width: 0; stroke-dasharray: none; stroke-linecap: butt; stroke-dashoffset: 0; stroke-linejoin: miter; stroke-miterlimit: 4; is-custom-font: none; font-file-url: none; fill: rgb(214,216,229); fill-rule: nonzero; opacity: 0.4;" transform=" translate(-42.6583, -297.077)" d="M 42.6583 314 C 58.8395 314 71.9568 306.423 71.9568 297.077 C 71.9568 287.73 58.8395 280.154 42.6583 280.154 C 26.4772 280.154 13.3599 287.73 13.3599 297.077 C 13.3599 306.423 26.4772 314 42.6583 314 Z" stroke-linecap="round"/>
</g>
		<g transform="matrix(2.5256 0 0 2.6852 -316.6216 312.1462)" id="Vector_35">
<path style="stroke: none; stroke-width: 0; stroke-dasharray: none; stroke-linecap: butt; stroke-dashoffset: 0; stroke-linejoin: miter; stroke-miterlimit: 4; is-custom-font: none; font-file-url: none; fill: rgb(235,93,30); fill-rule: nonzero; opacity: 1;" transform=" translate(-46.3762, -273.2452)" d="M 75.6713 234.751 H 17.0811 C 17.0811 234.751 17.2815 284.458 17.1278 293.889 C 17.09 294.313 17.0788 294.74 17.0944 295.165 C 17.0992 295.232 17.0992 295.299 17.0944 295.366 C 17.3282 299.51 20.1806 303.614 25.6582 306.782 C 37.0943 313.392 55.6447 313.392 67.0742 306.782 C 72.5518 303.614 75.3975 299.51 75.6313 295.366 L 75.6713 234.751 Z" stroke-linecap="round"/>
</g>
		<g transform="matrix(2.5256 0 0 2.6852 -316.6131 207.2928)" id="Vector_36">
<path style="stroke: none; stroke-width: 0; stroke-dasharray: none; stroke-linecap: butt; stroke-dashoffset: 0; stroke-linejoin: miter; stroke-miterlimit: 4; is-custom-font: none; font-file-url: none; fill: rgb(140,80,255); fill-rule: nonzero; opacity: 1;" transform=" translate(-46.3795, -234.197)" d="M 46.3795 251.12 C 62.5606 251.12 75.678 243.543 75.678 234.197 C 75.678 224.85 62.5606 217.274 46.3795 217.274 C 30.1984 217.274 17.0811 224.85 17.0811 234.197 C 17.0811 243.543 30.1984 251.12 46.3795 251.12 Z" stroke-linecap="round"/>
</g>
		<g transform="matrix(2.5256 0 0 2.6852 -316.6225 202.8029)" id="Vector_37">
<path style="stroke: none; stroke-width: 0; stroke-dasharray: none; stroke-linecap: butt; stroke-dashoffset: 0; stroke-linejoin: miter; stroke-miterlimit: 4; is-custom-font: none; font-file-url: none; fill: rgb(239,153,15); fill-rule: nonzero; opacity: 1;" transform=" translate(-46.3759, -232.5249)" d="M 77.1071 236.462 C 76.8007 237.272 76.4112 238.047 75.9447 238.775 C 75.0244 240.208 73.8991 241.498 72.6047 242.605 C 72.2173 242.946 71.8031 243.273 71.3689 243.601 C 70.506 244.251 69.6024 244.844 68.6635 245.379 C 68.4631 245.499 68.2627 245.612 68.0557 245.719 C 67.6415 245.953 67.2073 246.174 66.7731 246.388 C 65.7177 246.902 64.6155 247.377 63.4799 247.798 C 63.059 247.958 62.6382 248.112 62.204 248.252 C 61.1151 248.62 59.9929 248.921 58.864 249.228 C 58.4832 249.329 58.0891 249.415 57.7017 249.502 C 56.5794 249.75 55.4438 249.964 54.2949 250.131 C 53.9074 250.191 53.5133 250.244 53.1259 250.291 C 51.9969 250.431 50.8613 250.538 49.7191 250.605 C 49.3316 250.605 48.9442 250.652 48.5501 250.659 C 47.4211 250.712 46.2855 250.719 45.1499 250.692 L 43.9342 250.639 C 42.7941 250.585 41.6585 250.498 40.5274 250.378 C 40.1333 250.331 39.7458 250.291 39.3584 250.231 C 38.2094 250.084 37.0738 249.897 35.9583 249.669 L 34.7893 249.422 C 33.6269 249.155 32.4913 248.847 31.3825 248.5 L 30.2135 248.119 C 29.0445 247.711 27.9022 247.257 26.8067 246.749 C 26.4103 246.57 26.0229 246.383 25.6443 246.187 C 25.1233 245.929 24.6156 245.655 24.1213 245.365 C 23.4533 244.977 22.8321 244.583 22.2375 244.175 C 21.8301 243.901 21.4426 243.614 21.0685 243.32 C 19.7997 242.351 18.6554 241.228 17.6617 239.978 C 17.2349 239.431 16.8465 238.855 16.4994 238.254 C 12.8789 231.931 15.4173 224.692 24.1213 219.666 C 36.4125 212.568 56.3389 212.568 68.6301 219.666 C 72.0904 221.671 74.5687 224.004 76.085 226.504 C 76.4883 227.164 76.8304 227.86 77.1071 228.582 C 78.0956 231.116 78.0956 233.929 77.1071 236.462 Z" stroke-linecap="round"/>
</g>
		<g transform="matrix(2.5256 0 0 2.6852 -248.73 195.9401)" id="Vector_39">
<path style="stroke: none; stroke-width: 0; stroke-dasharray: none; stroke-linecap: butt; stroke-dashoffset: 0; stroke-linejoin: miter; stroke-miterlimit: 4; is-custom-font: none; font-file-url: none; fill: rgb(239,153,15); fill-rule: nonzero; opacity: 1;" transform=" translate(-73.2564, -229.969)" d="M 77.8556 222.988 L 77.8422 232.091 L 72.1442 236.95 L 68.6572 228.602 L 77.8556 222.988 Z" stroke-linecap="round"/>
</g>
		<g transform="matrix(2.5256 0 0 2.6852 -355.9308 229.628)" id="Vector_43">
<path style="stroke: none; stroke-width: 0; stroke-dasharray: none; stroke-linecap: butt; stroke-dashoffset: 0; stroke-linejoin: miter; stroke-miterlimit: 4; is-custom-font: none; font-file-url: none; fill: rgb(221,137,16); fill-rule: nonzero; opacity: 1;" transform=" translate(-30.8116, -242.5145)" d="M 31.3961 236.516 V 248.513 L 30.2271 248.132 V 236.516 H 31.3961 Z" stroke-linecap="round"/>
</g>
		<g transform="matrix(2.5256 0 0 2.6852 -344.4076 233.2894)" id="Vector_44">
<path style="stroke: none; stroke-width: 0; stroke-dasharray: none; stroke-linecap: butt; stroke-dashoffset: 0; stroke-linejoin: miter; stroke-miterlimit: 4; is-custom-font: none; font-file-url: none; fill: rgb(221,137,16); fill-rule: nonzero; opacity: 1;" transform=" translate(-35.374, -243.878)" d="M 35.9585 238.087 V 249.683 L 34.7896 249.436 V 238.073 L 35.9585 238.087 Z" stroke-linecap="round"/>
</g>
		<g transform="matrix(2.5256 0 0 2.6852 -332.8683 235.8913)" id="Vector_45">
<path style="stroke: none; stroke-width: 0; stroke-dasharray: none; stroke-linecap: butt; stroke-dashoffset: 0; stroke-linejoin: miter; stroke-miterlimit: 4; is-custom-font: none; font-file-url: none; fill: rgb(221,137,16); fill-rule: nonzero; opacity: 1;" transform=" translate(-39.9429, -244.847)" d="M 40.5274 239.276 V 250.418 C 40.1333 250.371 39.7458 250.331 39.3584 250.271 V 239.276 H 40.5274 Z" stroke-linecap="round"/>
</g>
		<g transform="matrix(2.5256 0 0 2.6852 -321.3116 236.2955)" id="Vector_46">
<path style="stroke: none; stroke-width: 0; stroke-dasharray: none; stroke-linecap: butt; stroke-dashoffset: 0; stroke-linejoin: miter; stroke-miterlimit: 4; is-custom-font: none; font-file-url: none; fill: rgb(221,137,16); fill-rule: nonzero; opacity: 1;" transform=" translate(-44.5186, -244.9975)" d="M 45.1031 239.276 V 250.719 L 43.9341 250.639 V 239.276 H 45.1031 Z" stroke-linecap="round"/>
</g>
		<g transform="matrix(2.5256 0 0 2.6852 -309.7712 236.2592)" id="Vector_47">
<path style="stroke: none; stroke-width: 0; stroke-dasharray: none; stroke-linecap: butt; stroke-dashoffset: 0; stroke-linejoin: miter; stroke-miterlimit: 4; is-custom-font: none; font-file-url: none; fill: rgb(221,137,16); fill-rule: nonzero; opacity: 1;" transform=" translate(-49.0879, -244.984)" d="M 49.6724 239.276 V 250.639 C 49.285 250.639 48.8975 250.685 48.5034 250.692 V 239.276 H 49.6724 Z" stroke-linecap="round"/>
</g>
		<g transform="matrix(2.5256 0 0 2.6852 -298.2145 235.1113)" id="Vector_48">
<path style="stroke: none; stroke-width: 0; stroke-dasharray: none; stroke-linecap: butt; stroke-dashoffset: 0; stroke-linejoin: miter; stroke-miterlimit: 4; is-custom-font: none; font-file-url: none; fill: rgb(221,137,16); fill-rule: nonzero; opacity: 1;" transform=" translate(-53.6636, -244.5565)" d="M 54.2481 238.822 V 250.131 C 53.8607 250.191 53.4665 250.244 53.0791 250.291 V 238.822 H 54.2481 Z" stroke-linecap="round"/>
</g>
		<g transform="matrix(2.5256 0 0 2.6852 -286.665 232.41)" id="Vector_49">
<path style="stroke: none; stroke-width: 0; stroke-dasharray: none; stroke-linecap: butt; stroke-dashoffset: 0; stroke-linejoin: miter; stroke-miterlimit: 4; is-custom-font: none; font-file-url: none; fill: rgb(221,137,16); fill-rule: nonzero; opacity: 1;" transform=" translate(-58.2364, -243.5505)" d="M 58.8176 237.599 V 249.228 C 58.4368 249.329 58.0427 249.415 57.6553 249.502 V 237.599 H 58.8176 Z" stroke-linecap="round"/>
</g>
		<g transform="matrix(2.5256 0 0 2.6852 -275.0833 228.4787)" id="Vector_50">
<path style="stroke: none; stroke-width: 0; stroke-dasharray: none; stroke-linecap: butt; stroke-dashoffset: 0; stroke-linejoin: miter; stroke-miterlimit: 4; is-custom-font: none; font-file-url: none; fill: rgb(221,137,16); fill-rule: nonzero; opacity: 1;" transform=" translate(-62.8221, -242.0865)" d="M 63.46 235.934 V 247.785 C 63.0391 247.945 62.6183 248.099 62.1841 248.239 V 235.934 H 63.46 Z" stroke-linecap="round"/>
</g>
		<g transform="matrix(2.5256 0 0 2.6852 -263.5689 222.5657)" id="Vector_51">
<path style="stroke: none; stroke-width: 0; stroke-dasharray: none; stroke-linecap: butt; stroke-dashoffset: 0; stroke-linejoin: miter; stroke-miterlimit: 4; is-custom-font: none; font-file-url: none; fill: rgb(221,137,16); fill-rule: nonzero; opacity: 1;" transform=" translate(-67.381, -239.8845)" d="M 68.0223 233.381 V 245.719 C 67.6081 245.953 67.1739 246.174 66.7397 246.388 V 233.381 H 68.0223 Z" stroke-linecap="round"/>
</g>
		<g transform="matrix(2.5256 0 0 2.6852 -252.0208 215.09)" id="Vector_52">
<path style="stroke: none; stroke-width: 0; stroke-dasharray: none; stroke-linecap: butt; stroke-dashoffset: 0; stroke-linejoin: miter; stroke-miterlimit: 4; is-custom-font: none; font-file-url: none; fill: rgb(221,137,16); fill-rule: nonzero; opacity: 1;" transform=" translate(-71.9534, -237.1005)" d="M 72.5713 230.587 V 242.618 C 72.1838 242.959 71.7697 243.286 71.3354 243.614 V 230.587 H 72.5713 Z" stroke-linecap="round"/>
</g>
		<g transform="matrix(2.5256 0 0 2.6852 -240.4719 203.1111)" id="Vector_53">
<path style="stroke: none; stroke-width: 0; stroke-dasharray: none; stroke-linecap: butt; stroke-dashoffset: 0; stroke-linejoin: miter; stroke-miterlimit: 4; is-custom-font: none; font-file-url: none; fill: rgb(221,137,16); fill-rule: nonzero; opacity: 1;" transform=" translate(-76.5259, -232.6395)" d="M 77.1071 226.504 V 236.462 C 76.8008 237.272 76.4113 238.047 75.9448 238.775 V 226.504 H 77.1071 Z" stroke-linecap="round"/>
</g>
		<g transform="matrix(2.5256 0 0 2.6852 -316.6136 177.1937)" id="Vector_54">
<path style="stroke: none; stroke-width: 0; stroke-dasharray: none; stroke-linecap: butt; stroke-dashoffset: 0; stroke-linejoin: miter; stroke-miterlimit: 4; is-custom-font: none; font-file-url: none; fill: rgb(252,167,13); fill-rule: nonzero; opacity: 1;" transform=" translate(-46.3794, -222.988)" d="M 46.3795 241.168 C 63.7633 241.168 77.8556 233.029 77.8556 222.988 C 77.8556 212.948 63.7633 204.808 46.3795 204.808 C 28.9957 204.808 14.9033 212.948 14.9033 222.988 C 14.9033 233.029 28.9957 241.168 46.3795 241.168 Z" stroke-linecap="round"/>
</g>
		<g transform="matrix(2.5256 0 0 2.6852 -316.5464 303.7653)" id="Vector_55">
<path style="stroke: none; stroke-width: 0; stroke-dasharray: none; stroke-linecap: butt; stroke-dashoffset: 0; stroke-linejoin: miter; stroke-miterlimit: 4; is-custom-font: none; font-file-url: none; fill: rgb(236,232,249); fill-rule: nonzero; opacity: 1;" transform=" translate(-46.4058, -270.1237)" d="M 67.0938 256.159 C 55.6509 262.769 37.1005 262.769 25.6777 256.159 L 25.1433 255.838 L 25.0298 255.905 V 279.071 L 25.6978 279.452 C 37.1339 286.062 55.6843 286.062 67.1138 279.452 L 67.7818 279.064 V 255.912 L 67.6682 255.845 L 67.0938 256.159 Z" stroke-linecap="round"/>
</g>
		<g transform="matrix(2.5256 0 0 2.6852 -316.6136 292.1993)" id="Vector_56">
<path style="stroke: none; stroke-width: 0; stroke-dasharray: none; stroke-linecap: butt; stroke-dashoffset: 0; stroke-linejoin: miter; stroke-miterlimit: 4; is-custom-font: none; font-file-url: none; fill: rgb(235,93,30); fill-rule: nonzero; opacity: 1;" transform=" translate(-46.3791, -265.8163)" d="M 64.3817 262.562 C 53.8273 267.328 38.9309 267.328 28.3765 262.562 V 265.496 C 38.9309 270.262 53.8273 270.262 64.3817 265.496 V 262.562 Z" stroke-linecap="round"/>
</g>
		<g transform="matrix(2.5256 0 0 2.6852 -333.0461 321.9202)" id="Vector_57">
<path style="stroke: none; stroke-width: 0; stroke-dasharray: none; stroke-linecap: butt; stroke-dashoffset: 0; stroke-linejoin: miter; stroke-miterlimit: 4; is-custom-font: none; font-file-url: none; fill: rgb(235,93,30); fill-rule: nonzero; opacity: 1;" transform=" translate(-39.8727, -276.8845)" d="M 51.369 276.972 C 43.4265 277.761 35.0364 276.652 28.3765 273.63 V 276.558 C 35.0565 279.566 43.4265 280.675 51.369 279.9 V 276.972 Z" stroke-linecap="round"/>
</g>
		<g transform="matrix(2.5256 0 0 2.6852 -323.7838 307.0844)" id="Vector_58">
<path style="stroke: none; stroke-width: 0; stroke-dasharray: none; stroke-linecap: butt; stroke-dashoffset: 0; stroke-linejoin: miter; stroke-miterlimit: 4; is-custom-font: none; font-file-url: none; fill: rgb(235,93,30); fill-rule: nonzero; opacity: 1;" transform=" translate(-43.5401, -271.3595)" d="M 58.7037 270.115 C 48.9175 272.735 37.154 272.08 28.3765 268.11 V 271.044 C 37.154 275.001 48.9175 275.656 58.7037 273.049 V 270.115 Z" stroke-linecap="round"/>
</g>
		<g transform="matrix(2.5256 0 0 2.6852 258.9018 171.8626)" id="Vector_59">
<path style="stroke: none; stroke-width: 0; stroke-dasharray: none; stroke-linecap: butt; stroke-dashoffset: 0; stroke-linejoin: miter; stroke-miterlimit: 4; is-custom-font: none; font-file-url: none; fill: rgb(214,216,229); fill-rule: nonzero; opacity: 0.4;" transform=" translate(-274.2475, -221.003)" d="M 274.248 254.535 C 306.304 254.535 332.29 239.522 332.29 221.003 C 332.29 202.484 306.304 187.471 274.248 187.471 C 242.192 187.471 216.205 202.484 216.205 221.003 C 216.205 239.522 242.192 254.535 274.248 254.535 Z" stroke-linecap="round"/>
</g>
		<g transform="matrix(2.5256 0 0 2.6852 266.5469 3.4791)" id="Vector_60">
<path style="stroke: none; stroke-width: 0; stroke-dasharray: none; stroke-linecap: butt; stroke-dashoffset: 0; stroke-linejoin: miter; stroke-miterlimit: 4; is-custom-font: none; font-file-url: none; fill: rgb(225,234,255); fill-rule: nonzero; opacity: 1;" transform=" translate(-277.2744, -158.2974)" d="M 333.566 213.37 L 333.532 213.277 C 333.131 211.453 332.493 209.689 331.635 208.03 L 297.166 112.814 H 297.3 V 66.4025 H 257.18 V 112.814 L 222.871 208.104 C 222.032 209.74 221.407 211.479 221.014 213.277 L 220.981 213.37 C 218.91 223.048 224.288 233.161 237.153 240.593 C 259.304 253.392 295.229 253.392 317.387 240.593 C 330.259 233.161 335.643 223.048 333.566 213.37 Z" stroke-linecap="round"/>
</g>
		<g transform="matrix(2.5256 0 0 2.6852 266.5617 149.985)" id="Vector_61">
<path style="stroke: none; stroke-width: 0; stroke-dasharray: none; stroke-linecap: butt; stroke-dashoffset: 0; stroke-linejoin: miter; stroke-miterlimit: 4; is-custom-font: none; font-file-url: none; fill: rgb(252,167,13); fill-rule: nonzero; opacity: 1;" transform=" translate(-277.28, -212.8555)" d="M 277.28 238.708 C 301.998 238.708 322.036 227.134 322.036 212.856 C 322.036 198.578 301.998 187.003 277.28 187.003 C 252.562 187.003 232.524 198.578 232.524 212.856 C 232.524 227.134 252.562 238.708 277.28 238.708 Z" stroke-linecap="round"/>
</g>
		<g transform="matrix(2.5256 0 0 2.6852 266.5617 80.2155)" id="Vector_62">
<path style="stroke: none; stroke-width: 0; stroke-dasharray: none; stroke-linecap: butt; stroke-dashoffset: 0; stroke-linejoin: miter; stroke-miterlimit: 4; is-custom-font: none; font-file-url: none; fill: rgb(252,167,13); fill-rule: nonzero; opacity: 1;" transform=" translate(-277.28, -186.873)" d="M 232.731 210.363 L 248.683 163.383 H 305.623 L 321.829 210.363 H 232.731 Z" stroke-linecap="round"/>
</g>
		<g transform="matrix(2.5256 0 0 2.6852 266.2419 21.374)" id="Vector_63">
<path style="stroke: none; stroke-width: 0; stroke-dasharray: none; stroke-linecap: butt; stroke-dashoffset: 0; stroke-linejoin: miter; stroke-miterlimit: 4; is-custom-font: none; font-file-url: none; fill: rgb(239,153,15); fill-rule: nonzero; opacity: 1;" transform=" translate(-277.153, -164.96)" d="M 277.153 181.482 C 292.947 181.482 305.75 174.085 305.75 164.96 C 305.75 155.835 292.947 148.438 277.153 148.438 C 261.36 148.438 248.556 155.835 248.556 164.96 C 248.556 174.085 261.36 181.482 277.153 181.482 Z" stroke-linecap="round"/>
</g>
		<g transform="matrix(2.5256 0 0 2.6852 205.3912 -33.3323)" id="Vector_64">
<path style="stroke: none; stroke-width: 0; stroke-dasharray: none; stroke-linecap: butt; stroke-dashoffset: 0; stroke-linejoin: miter; stroke-miterlimit: 4; is-custom-font: none; font-file-url: none; fill: rgb(255,255,255); fill-rule: nonzero; opacity: 0.2;" transform=" translate(-253.0599, -144.5883)" d="M 277.053 112.54 V 221.003 C 264.775 221.003 252.504 218.283 243.132 212.869 C 232.037 206.459 227.508 197.69 229.538 189.356 L 230.874 185.693 L 237.688 166.899 L 237.989 166.05 L 257.18 112.814 V 68.1737 L 277.013 76.9694 L 277.053 112.54 Z" stroke-linecap="round"/>
</g>
		<g transform="matrix(2.5256 0 0 2.6852 266.5631 -247.4414)" id="Vector_65">
<path style="stroke: none; stroke-width: 0; stroke-dasharray: none; stroke-linecap: butt; stroke-dashoffset: 0; stroke-linejoin: miter; stroke-miterlimit: 4; is-custom-font: none; font-file-url: none; fill: rgb(214,223,242); fill-rule: nonzero; opacity: 1;" transform=" translate(-277.28, -64.8519)" d="M 277.28 76.9427 C 288.838 76.9427 298.208 71.5295 298.208 64.8519 C 298.208 58.1743 288.838 52.7611 277.28 52.7611 C 265.722 52.7611 256.352 58.1743 256.352 64.8519 C 256.352 71.5295 265.722 76.9427 277.28 76.9427 Z" stroke-linecap="round"/>
</g>
		<g transform="matrix(2.5256 0 0 2.6852 266.5647 -247.441)" id="Vector_66">
<path style="stroke: none; stroke-width: 0; stroke-dasharray: none; stroke-linecap: butt; stroke-dashoffset: 0; stroke-linejoin: miter; stroke-miterlimit: 4; is-custom-font: none; font-file-url: none; fill: rgb(172,186,209); fill-rule: nonzero; opacity: 1;" transform=" translate(-277.2805, -64.8519)" d="M 277.28 70.5531 C 284.895 70.5531 291.068 68.0006 291.068 64.8519 C 291.068 61.7032 284.895 59.1507 277.28 59.1507 C 269.666 59.1507 263.493 61.7032 263.493 64.8519 C 263.493 68.0006 269.666 70.5531 277.28 70.5531 Z" stroke-linecap="round"/>
</g>
		<g transform="matrix(2.5256 0 0 2.6852 257.3529 -287.6972)" id="Vector_67">
<path style="stroke: none; stroke-width: 0; stroke-dasharray: none; stroke-linecap: butt; stroke-dashoffset: 0; stroke-linejoin: miter; stroke-miterlimit: 4; is-custom-font: none; font-file-url: none; fill: rgb(252,167,13); fill-rule: nonzero; opacity: 1;" transform=" translate(-273.633, -49.8603)" d="M 273.633 55.4613 C 276.725 55.4613 279.231 52.9537 279.231 49.8604 C 279.231 46.7671 276.725 44.2594 273.633 44.2594 C 270.541 44.2594 268.035 46.7671 268.035 49.8604 C 268.035 52.9537 270.541 55.4613 273.633 55.4613 Z" stroke-linecap="round"/>
</g>
		<g transform="matrix(2.5256 0 0 2.6852 254.72 -291.1427)" id="Vector_68">
<path style="stroke: none; stroke-width: 0; stroke-dasharray: none; stroke-linecap: butt; stroke-dashoffset: 0; stroke-linejoin: miter; stroke-miterlimit: 4; is-custom-font: none; font-file-url: none; fill: rgb(255,255,255); fill-rule: nonzero; opacity: 0.2;" transform=" translate(-272.5905, -48.5772)" d="M 272.591 51.3041 C 274.096 51.3041 275.316 50.0832 275.316 48.5771 C 275.316 47.0711 274.096 45.8502 272.591 45.8502 C 271.085 45.8502 269.865 47.0711 269.865 48.5771 C 269.865 50.0832 271.085 51.3041 272.591 51.3041 Z" stroke-linecap="round"/>
</g>
		<g transform="matrix(2.5256 0 0 2.6852 262.1443 -280.6615)" id="Vector_69">
<path style="stroke: none; stroke-width: 0; stroke-dasharray: none; stroke-linecap: butt; stroke-dashoffset: 0; stroke-linejoin: miter; stroke-miterlimit: 4; is-custom-font: none; font-file-url: none; fill: rgb(255,255,255); fill-rule: nonzero; opacity: 0.2;" transform=" translate(-275.53, -52.4804)" d="M 275.53 53.5631 C 276.128 53.5631 276.612 53.0784 276.612 52.4804 C 276.612 51.8824 276.128 51.3976 275.53 51.3976 C 274.932 51.3976 274.448 51.8824 274.448 52.4804 C 274.448 53.0784 274.932 53.5631 275.53 53.5631 Z" stroke-linecap="round"/>
</g>
		<g transform="matrix(2.5256 0 0 2.6852 306.9883 -336.3887)" id="Vector_70">
<path style="stroke: none; stroke-width: 0; stroke-dasharray: none; stroke-linecap: butt; stroke-dashoffset: 0; stroke-linejoin: miter; stroke-miterlimit: 4; is-custom-font: none; font-file-url: none; fill: rgb(252,167,13); fill-rule: nonzero; opacity: 1;" transform=" translate(-293.2855, -31.7275)" d="M 293.285 40.1356 C 297.926 40.1356 301.689 36.3712 301.689 31.7275 C 301.689 27.0838 297.926 23.3194 293.285 23.3194 C 288.644 23.3194 284.882 27.0838 284.882 31.7275 C 284.882 36.3712 288.644 40.1356 293.285 40.1356 Z" stroke-linecap="round"/>
</g>
		<g transform="matrix(2.5256 0 0 2.6852 303.0409 -341.5573)" id="Vector_71">
<path style="stroke: none; stroke-width: 0; stroke-dasharray: none; stroke-linecap: butt; stroke-dashoffset: 0; stroke-linejoin: miter; stroke-miterlimit: 4; is-custom-font: none; font-file-url: none; fill: rgb(255,255,255); fill-rule: nonzero; opacity: 0.2;" transform=" translate(-291.7225, -29.8026)" d="M 291.722 33.893 C 293.98 33.893 295.811 32.0617 295.811 29.8026 C 295.811 27.5435 293.98 25.7122 291.722 25.7122 C 289.465 25.7122 287.634 27.5435 287.634 29.8026 C 287.634 32.0617 289.465 33.893 291.722 33.893 Z" stroke-linecap="round"/>
</g>
		<g transform="matrix(2.5256 0 0 2.6852 314.193 -325.8173)" id="Vector_72">
<path style="stroke: none; stroke-width: 0; stroke-dasharray: none; stroke-linecap: butt; stroke-dashoffset: 0; stroke-linejoin: miter; stroke-miterlimit: 4; is-custom-font: none; font-file-url: none; fill: rgb(255,255,255); fill-rule: nonzero; opacity: 0.2;" transform=" translate(-296.138, -35.6642)" d="M 296.138 37.2883 C 297.034 37.2883 297.761 36.5612 297.761 35.6642 C 297.761 34.7672 297.034 34.0401 296.138 34.0401 C 295.241 34.0401 294.515 34.7672 294.515 35.6642 C 294.515 36.5612 295.241 37.2883 296.138 37.2883 Z" stroke-linecap="round"/>
</g>
		<g transform="matrix(2.5256 0 0 2.6852 245.8798 -392.2052)" id="Vector_73">
<path style="stroke: none; stroke-width: 0; stroke-dasharray: none; stroke-linecap: butt; stroke-dashoffset: 0; stroke-linejoin: miter; stroke-miterlimit: 4; is-custom-font: none; font-file-url: none; fill: rgb(252,167,13); fill-rule: nonzero; opacity: 1;" transform=" translate(-269.0905, -10.9412)" d="M 269.091 21.7688 C 275.067 21.7688 279.912 16.9211 279.912 10.9412 C 279.912 4.96129 275.067 0.113617 269.091 0.113617 C 263.114 0.113617 258.269 4.96129 258.269 10.9412 C 258.269 16.9211 263.114 21.7688 269.091 21.7688 Z" stroke-linecap="round"/>
</g>
		<g transform="matrix(2.5256 0 0 2.6852 240.7846 -398.8454)" id="Vector_74">
<path style="stroke: none; stroke-width: 0; stroke-dasharray: none; stroke-linecap: butt; stroke-dashoffset: 0; stroke-linejoin: miter; stroke-miterlimit: 4; is-custom-font: none; font-file-url: none; fill: rgb(255,255,255); fill-rule: nonzero; opacity: 0.2;" transform=" translate(-267.073, -8.4682)" d="M 267.073 13.735 C 269.98 13.735 272.337 11.377 272.337 8.46824 C 272.337 5.5595 269.98 3.20149 267.073 3.20149 C 264.166 3.20149 261.809 5.5595 261.809 8.46824 C 261.809 11.377 264.166 13.735 267.073 13.735 Z" stroke-linecap="round"/>
</g>
		<g transform="matrix(2.5256 0 0 2.6852 255.1432 -378.6006)" id="Vector_75">
<path style="stroke: none; stroke-width: 0; stroke-dasharray: none; stroke-linecap: butt; stroke-dashoffset: 0; stroke-linejoin: miter; stroke-miterlimit: 4; is-custom-font: none; font-file-url: none; fill: rgb(255,255,255); fill-rule: nonzero; opacity: 0.2;" transform=" translate(-272.758, -16.0074)" d="M 272.758 18.0928 C 273.909 18.0928 274.842 17.1591 274.842 16.0074 C 274.842 14.8558 273.909 13.9221 272.758 13.9221 C 271.607 13.9221 270.674 14.8558 270.674 16.0074 C 270.674 17.1591 271.607 18.0928 272.758 18.0928 Z" stroke-linecap="round"/>
</g>
		<g transform="matrix(2.5256 0 0 2.6852 299.7828 378.6363)" id="Vector_76">
<path style="stroke: none; stroke-width: 0; stroke-dasharray: none; stroke-linecap: butt; stroke-dashoffset: 0; stroke-linejoin: miter; stroke-miterlimit: 4; is-custom-font: none; font-file-url: none; fill: rgb(214,216,229); fill-rule: nonzero; opacity: 0.4;" transform=" translate(-290.433, -298.006)" d="M 290.433 312.062 C 303.869 312.062 314.762 305.769 314.762 298.006 C 314.762 290.243 303.869 283.95 290.433 283.95 C 276.997 283.95 266.104 290.243 266.104 298.006 C 266.104 305.769 276.997 312.062 290.433 312.062 Z" stroke-linecap="round"/>
</g>
		<g transform="matrix(2.5256 0 0 2.6852 342.2074 126.2413)" id="&lt;&#xd0;&#x9a;&#xd0;&#xbe;&#xd0;&#xbd;&#xd1;&#x82;&#xd1;&#x83;&#xd1;&#x80;&gt;">
<path style="stroke: none; stroke-width: 0; stroke-dasharray: none; stroke-linecap: butt; stroke-dashoffset: 0; stroke-linejoin: miter; stroke-miterlimit: 4; is-custom-font: none; font-file-url: none; fill: rgb(255,206,169); fill-rule: nonzero; opacity: 1;" transform=" translate(-307.23, -204.013)" d="M 310.547 190.953 C 310.827 193.379 313.726 203.873 313.105 207.469 C 312.484 211.064 302.604 217.073 302.604 217.073 L 301.268 210.917 L 306.752 205.57 L 305.269 195.378 L 310.547 190.953 Z" stroke-linecap="round"/>
</g>
		<g transform="matrix(2.5256 0 0 2.6852 342.1242 84.6026)" id="&lt;&#xd0;&#x9a;&#xd0;&#xbe;&#xd0;&#xbd;&#xd1;&#x82;&#xd1;&#x83;&#xd1;&#x80;&gt;_2">
<path style="stroke: none; stroke-width: 0; stroke-dasharray: none; stroke-linecap: butt; stroke-dashoffset: 0; stroke-linejoin: miter; stroke-miterlimit: 4; is-custom-font: none; font-file-url: none; fill: rgb(237,237,237); fill-rule: nonzero; opacity: 1;" transform=" translate(-307.197, -188.5064)" d="M 302.885 180.614 C 303.849 180.166 304.943 180.089 305.96 180.396 C 306.977 180.702 307.846 181.372 308.402 182.278 C 309.859 184.697 311.375 192.972 311.509 194.395 C 311.509 194.395 309.465 197.223 306.398 196.748 L 302.885 180.614 Z" stroke-linecap="round"/>
</g>
		<g transform="matrix(2.5256 0 0 2.6852 281.5641 384.8006)" id="Vector_77">
<path style="stroke: none; stroke-width: 0; stroke-dasharray: none; stroke-linecap: butt; stroke-dashoffset: 0; stroke-linejoin: miter; stroke-miterlimit: 4; is-custom-font: none; font-file-url: none; fill: rgb(56,34,109); fill-rule: nonzero; opacity: 1;" transform=" translate(-283.2192, -300.3014)" d="M 291.575 297.578 C 289.419 298.173 287.115 297.894 285.163 296.803 C 283.62 296.85 275.236 293.26 274.094 296.275 C 273.099 298.948 276.726 301.361 278.67 301.829 C 282.905 302.858 286.018 304.97 287.734 305.325 C 289.004 305.592 290.64 305.772 291.656 304.776 C 292.865 303.58 292.758 299.156 291.575 297.578 Z" stroke-linecap="round"/>
</g>
		<g transform="matrix(2.5256 0 0 2.6852 281.1879 387.1299)" id="Vector_78">
<path style="stroke: none; stroke-width: 0; stroke-dasharray: none; stroke-linecap: butt; stroke-dashoffset: 0; stroke-linejoin: miter; stroke-miterlimit: 4; is-custom-font: none; font-file-url: none; fill: rgb(156,115,255); fill-rule: nonzero; opacity: 1;" transform=" translate(-283.0703, -301.1689)" d="M 287.734 304.596 C 286.038 304.235 282.905 302.123 278.67 301.1 C 277.046 300.706 274.241 298.922 273.96 296.803 C 273.586 299.236 276.859 301.395 278.67 301.829 C 282.905 302.858 286.018 304.97 287.734 305.325 C 289.003 305.592 290.64 305.772 291.655 304.776 C 291.915 304.485 292.105 304.137 292.21 303.761 C 291.58 304.238 290.848 304.563 290.071 304.708 C 289.294 304.853 288.494 304.814 287.734 304.596 Z" stroke-linecap="round"/>
</g>
		<g transform="matrix(2.5256 0 0 2.6852 315.9028 368.4026)" id="Vector_79">
<path style="stroke: none; stroke-width: 0; stroke-dasharray: none; stroke-linecap: butt; stroke-dashoffset: 0; stroke-linejoin: miter; stroke-miterlimit: 4; is-custom-font: none; font-file-url: none; fill: rgb(56,34,109); fill-rule: nonzero; opacity: 1;" transform=" translate(-296.8151, -294.1948)" d="M 305.169 291.469 C 303.013 292.068 300.708 291.789 298.756 290.694 C 297.213 290.741 288.83 287.152 287.694 290.166 C 286.692 292.806 290.326 295.252 292.264 295.72 C 296.499 296.749 299.612 298.861 301.328 299.222 C 302.597 299.49 304.241 299.663 305.249 298.668 C 306.459 297.471 306.352 293.047 305.169 291.469 Z" stroke-linecap="round"/>
</g>
		<g transform="matrix(2.5256 0 0 2.6852 315.5646 370.7313)" id="Vector_80">
<path style="stroke: none; stroke-width: 0; stroke-dasharray: none; stroke-linecap: butt; stroke-dashoffset: 0; stroke-linejoin: miter; stroke-miterlimit: 4; is-custom-font: none; font-file-url: none; fill: rgb(156,115,255); fill-rule: nonzero; opacity: 1;" transform=" translate(-296.6813, -295.062)" d="M 301.328 298.487 C 299.632 298.126 296.499 296.014 292.264 294.992 C 290.64 294.597 287.835 292.819 287.588 290.694 C 287.214 293.127 290.487 295.286 292.264 295.72 C 296.499 296.749 299.612 298.861 301.328 299.222 C 302.598 299.49 304.241 299.663 305.25 298.668 C 305.509 298.376 305.699 298.028 305.804 297.652 C 305.174 298.129 304.442 298.454 303.665 298.599 C 302.888 298.744 302.088 298.706 301.328 298.487 Z" stroke-linecap="round"/>
</g>
		<g transform="matrix(2.5256 0 0 2.6852 305.0358 275.5004)" id="&lt;&#xd0;&#x9a;&#xd0;&#xbe;&#xd0;&#xbd;&#xd1;&#x82;&#xd1;&#x83;&#xd1;&#x80;&gt;_3">
<path style="stroke: none; stroke-width: 0; stroke-dasharray: none; stroke-linecap: butt; stroke-dashoffset: 0; stroke-linejoin: miter; stroke-miterlimit: 4; is-custom-font: none; font-file-url: none; fill: rgb(235,93,30); fill-rule: nonzero; opacity: 1;" transform=" translate(-292.5126, -259.5982)" d="M 305.336 268.685 C 304.977 265.57 304.328 262.496 303.399 259.501 C 303.399 259.501 303.98 251.574 304.268 244.055 C 304.595 235.527 307.554 228.014 305.216 221.217 L 278.917 227.065 C 278.917 227.065 280.507 261.072 280.861 265.162 C 281.053 268.365 281.448 271.553 282.043 274.707 C 283.239 281.31 285.19 297.01 285.19 297.01 C 287.975 298.628 291.622 297.732 291.622 297.732 C 291.622 297.732 291.422 277.875 291.242 273.116 C 291.028 267.308 290.847 267.769 290.847 267.769 L 291.716 253.312 L 292.284 246.12 C 292.284 246.12 293.012 251.401 293.486 256.146 C 293.9 260.256 294.896 263.979 296.004 271.632 C 296.966 278.276 298.523 291.623 298.523 291.623 C 301.308 293.24 305.083 291.897 305.083 291.897 C 305.083 291.897 306.085 274.446 305.336 268.685 Z" stroke-linecap="round"/>
</g>
		<g transform="matrix(2.5256 0 0 2.6852 305.6322 45.7711)" id="&lt;&#xd0;&#x9a;&#xd0;&#xbe;&#xd0;&#xbd;&#xd1;&#x82;&#xd1;&#x83;&#xd1;&#x80;&gt;_4">
<path style="stroke: none; stroke-width: 0; stroke-dasharray: none; stroke-linecap: butt; stroke-dashoffset: 0; stroke-linejoin: miter; stroke-miterlimit: 4; is-custom-font: none; font-file-url: none; fill: rgb(255,206,169); fill-rule: nonzero; opacity: 1;" transform=" translate(-292.7487, -174.0456)" d="M 301.495 180.754 C 299.491 180.854 298.001 181.369 297.748 180.754 C 297.533 179.719 297.382 178.672 297.293 177.619 C 297.52 177.038 297.721 176.416 297.721 176.416 C 300.239 174.866 301.061 172.145 301.361 168.977 C 301.929 163.563 299.003 158.825 293.593 158.283 C 288.502 157.755 284.762 161.331 283.766 166.244 C 283.225 168.67 282.156 173.248 283.606 177.238 C 284.414 179.471 285.456 181.248 286.498 181.583 C 287.507 181.558 288.513 181.471 289.511 181.322 C 289.511 181.322 289.785 182.826 289.965 183.788 C 290.146 184.751 290.079 185.265 288.162 186.462 C 286.245 187.658 291.061 190.078 294.214 189.844 C 297.367 189.61 300.894 187.698 301.889 185.66 C 302.965 183.367 302.871 180.687 301.495 180.754 Z" stroke-linecap="round"/>
</g>
		<g transform="matrix(2.5256 0 0 2.6852 308.5263 130.8683)" id="&lt;&#xd0;&#x9a;&#xd0;&#xbe;&#xd0;&#xbd;&#xd1;&#x82;&#xd1;&#x83;&#xd1;&#x80;&gt;_5">
<path style="stroke: none; stroke-width: 0; stroke-dasharray: none; stroke-linecap: butt; stroke-dashoffset: 0; stroke-linejoin: miter; stroke-miterlimit: 4; is-custom-font: none; font-file-url: none; fill: rgb(244,244,244); fill-rule: nonzero; opacity: 1;" transform=" translate(-293.8946, -205.7363)" d="M 298.596 181.055 C 299.15 182.438 297.741 184.129 293.98 185.312 C 290.219 186.495 289.879 184.978 289.879 184.978 C 289.879 184.978 284.361 187.491 282.564 188.741 C 280.306 190.325 279.311 194.89 279.004 202.61 C 278.65 211.539 278.623 224.779 278.917 227.065 C 278.917 227.065 283.139 231.276 288.536 230.828 C 293.933 230.38 303.018 225.608 305.236 221.912 C 305.169 214.085 304.261 212.809 305.523 208.304 C 308.422 197.978 309.952 193.754 308.543 186.916 C 307.38 181.262 305.75 180.56 303.519 180.614 C 301.871 180.671 300.228 180.818 298.596 181.055 Z" stroke-linecap="round"/>
</g>
		<g transform="matrix(2.5256 0 0 2.6852 243.9744 124.4402)" id="&lt;&#xd0;&#x9a;&#xd0;&#xbe;&#xd0;&#xbd;&#xd1;&#x82;&#xd1;&#x83;&#xd1;&#x80;&gt;_6">
<path style="stroke: none; stroke-width: 0; stroke-dasharray: none; stroke-linecap: butt; stroke-dashoffset: 0; stroke-linejoin: miter; stroke-miterlimit: 4; is-custom-font: none; font-file-url: none; fill: rgb(255,206,169); fill-rule: nonzero; opacity: 1;" transform=" translate(-268.3363, -203.3423)" d="M 270.54 211.485 C 274.976 212.602 276.011 209.808 276.599 207.475 C 278.008 201.874 278.763 196.781 279.819 193.633 C 281.054 189.877 282.35 189.282 284.174 188.547 C 286.312 187.692 288.182 189.503 287.441 194.275 C 286.599 199.923 285.49 203.893 283.379 210.577 C 282.831 212.321 281.596 215.422 279.739 216.919 C 277.454 218.771 274.014 218.691 268.803 217.394 C 266.579 216.839 264.127 215.516 259.939 213.551 C 258.81 213.023 257.935 212.675 255.771 211.666 C 253.596 210.689 251.689 209.201 250.213 207.328 C 249.077 205.684 248.93 204.909 249.157 204.534 C 249.385 204.16 249.966 204.167 250.567 204.862 C 251.447 206.027 252.528 207.025 253.76 207.809 C 253.76 207.809 252.357 206.366 251.602 205.423 C 250.921 204.591 250.356 203.669 249.926 202.683 C 249.525 201.727 250.347 200.424 250.974 201.106 C 251.602 201.787 251.903 202.489 253.052 203.859 C 253.654 204.594 254.343 205.254 255.103 205.824 C 254.393 204.86 253.761 203.841 253.212 202.777 C 252.733 201.941 252.502 200.986 252.544 200.023 C 252.544 199.522 253.286 198.927 253.947 199.876 C 254.608 200.825 254.936 202.068 256.332 203.512 C 257.341 204.568 258.202 205.169 258.229 204.882 C 258.256 204.595 257.614 204.013 257.254 202.79 C 256.893 201.567 257.254 200.27 257.922 200.117 C 258.59 199.963 258.469 200.01 259.01 201.159 C 259.552 202.309 260.387 203.164 261.014 204.822 C 261.355 206 261.979 207.076 262.831 207.957 C 263.894 209.14 266.298 210.423 270.54 211.485 Z" stroke-linecap="round"/>
</g>
		<g transform="matrix(2.5256 0 0 2.6852 281.2264 105.5506)" id="&lt;&#xd0;&#x9a;&#xd0;&#xbe;&#xd0;&#xbd;&#xd1;&#x82;&#xd1;&#x83;&#xd1;&#x80;&gt;_7">
<path style="stroke: none; stroke-width: 0; stroke-dasharray: none; stroke-linecap: butt; stroke-dashoffset: 0; stroke-linejoin: miter; stroke-miterlimit: 4; is-custom-font: none; font-file-url: none; fill: rgb(237,237,237); fill-rule: nonzero; opacity: 1;" transform=" translate(-283.0854, -196.3076)" d="M 285.791 187.812 C 282.831 187.371 280.741 188.707 279.431 193.159 C 278.122 197.61 277.22 201.346 277.22 201.346 C 278.394 203.038 280.17 204.217 282.183 204.641 C 285.724 205.497 286.993 203.806 286.993 203.806 C 286.993 203.806 287.975 199.127 288.59 195.906 C 289.204 192.684 289.451 188.34 285.791 187.812 Z" stroke-linecap="round"/>
</g>
		<g transform="matrix(2.5256 0 0 2.6852 304.8181 27.8648)" id="Vector_81">
<path style="stroke: none; stroke-width: 0; stroke-dasharray: none; stroke-linecap: butt; stroke-dashoffset: 0; stroke-linejoin: miter; stroke-miterlimit: 4; is-custom-font: none; font-file-url: none; fill: rgb(58,44,109); fill-rule: nonzero; opacity: 1;" transform=" translate(-292.4263, -167.3771)" d="M 283.934 165.528 C 283.934 165.528 279.258 158.417 289.391 156.967 C 296.699 155.924 301.415 160.616 301.936 165.716 C 302.457 170.581 299.458 175.641 297.294 177.646 C 296.238 178.027 293.954 178.241 290.981 176.884 C 290.857 175.551 290.811 174.212 290.841 172.874 C 290.841 172.874 294.401 165.401 283.934 165.528 Z" stroke-linecap="round"/>
</g>
		<g transform="matrix(2.5256 0 0 2.6852 307.013 216.7874)" id="Vector_82">
<path style="stroke: none; stroke-width: 0; stroke-dasharray: none; stroke-linecap: butt; stroke-dashoffset: 0; stroke-linejoin: miter; stroke-miterlimit: 4; is-custom-font: none; font-file-url: none; fill: rgb(244,244,244); fill-rule: nonzero; opacity: 1;" transform=" translate(-293.2955, -237.7333)" d="M 307.881 197.042 L 278.916 224.044 L 277.22 275.97 C 277.22 275.97 285.343 279.933 294.588 277.788 L 296.258 257.817 L 298.83 275.943 L 298.522 276.498 C 302.898 274.538 306.651 271.412 309.371 267.461 L 307.881 197.042 Z" stroke-linecap="round"/>
</g>
		<g transform="matrix(2.5256 0 0 2.6852 255.9772 143.7013)" id="Vector_83">
<path style="stroke: none; stroke-width: 0; stroke-dasharray: none; stroke-linecap: butt; stroke-dashoffset: 0; stroke-linejoin: miter; stroke-miterlimit: 4; is-custom-font: none; font-file-url: none; fill: rgb(237,237,237); fill-rule: nonzero; opacity: 1;" transform=" translate(-273.0885, -210.5151)" d="M 277.22 201.346 L 275.797 207.609 C 275.797 207.609 274.588 212 271.502 210.884 C 268.563 209.649 265.699 208.243 262.925 206.673 L 259.184 214.353 L 266.926 217.982 C 266.926 217.982 277.668 221.812 280.654 217.982 C 283.64 214.152 286.993 203.806 286.993 203.806 L 277.22 201.346 Z" stroke-linecap="round"/>
</g>
		<g transform="matrix(2.5256 0 0 2.6852 350.946 125.7394)" id="Vector_84">
<path style="stroke: none; stroke-width: 0; stroke-dasharray: none; stroke-linecap: butt; stroke-dashoffset: 0; stroke-linejoin: miter; stroke-miterlimit: 4; is-custom-font: none; font-file-url: none; fill: rgb(237,237,237); fill-rule: nonzero; opacity: 1;" transform=" translate(-310.6898, -203.826)" d="M 311.508 194.395 L 312.764 200.371 C 312.764 200.371 313.372 204.869 313.432 205.717 C 313.492 206.566 313.853 208.09 311.375 210.556 C 308.897 213.023 308.235 213.771 308.235 213.771 L 307.895 199.736 L 308.609 196.501 L 310.687 193.881 L 311.508 194.395 Z" stroke-linecap="round"/>
</g>
</g>
</g>
</svg>